# xmcd
#
# Track frame offsets:
# 150
# 14625
# 29120
# 43990
# 61417
# 82575
# 99547
# 118575
# 130812
# 145202
# 163332
# 178987
# 196820
# 215137
# 235875
# 261360
# 294302
#
# Disc length: 4101 seconds
#
#
# Revision: 0
# Processed by: cddbd v1.5.1PL0 Copyright (c) Steve Scherf et al.
# Submitted via: FreeRIP 2.931 
#
DISCID=07100311
DTITLE=Mojo Blues Band - Blues Parade 2000 [CD1]
DYEAR=1900
DGENRE=Blues
TTITLE0=Wee Baby Blues
TTITLE1=Where Did You Go Last Night
TTITLE2=Going Crazy Over TV
TTITLE3=You Can´t Win ´em All
TTITLE4=Anna Lee
TTITLE5=They Must Have Seen Me Comin´
TTITLE6=Come On Little Children
TTITLE7=Arkansas
TTITLE8=Rocket In My Pocket
TTITLE9=Keep On Rockin´ Me Baby
TTITLE10=Call You On The Phone
TTITLE11=Last Time Around
TTITLE12=Big Muddy
TTITLE13=Irene
TTITLE14=Roll Over Beethoven #1
TTITLE15=Operator
TTITLE16=Pull Down The Shades
EXTD=
EXTT0=
EXTT1=
EXTT2=
EXTT3=
EXTT4=
EXTT5=
EXTT6=
EXTT7=
EXTT8=
EXTT9=
EXTT10=
EXTT11=
EXTT12=
EXTT13=
EXTT14=
EXTT15=
EXTT16=
PLAYORDER=
